<?xml version="1.0" standalone="no"?>
<!DOCTYPE svg PUBLIC "-//W3C//DTD SVG 20010904//EN"
 "http://www.w3.org/TR/2001/REC-SVG-20010904/DTD/svg10.dtd">
<svg version="1.0" xmlns="http://www.w3.org/2000/svg"
 width="618.000000pt" height="618.000000pt" viewBox="0 0 618.000000 618.000000"
 preserveAspectRatio="xMidYMid meet">
<metadata>
Created by potrace 1.11, written by Peter Selinger 2001-2013
</metadata>
<g transform="translate(0.000000,618.000000) scale(0.100000,-0.100000)"
fill="#000000" stroke="none">
<path d="M0 4990 l0 -1190 29 0 c17 0 33 5 36 10 3 6 16 10 28 10 18 0 19 -2
7 -10 -11 -7 -6 -10 20 -10 26 0 31 3 20 10 -13 8 -12 10 3 10 11 0 17 8 17
23 1 19 2 20 13 6 18 -23 52 -39 84 -39 41 0 101 24 118 46 10 13 17 15 22 8
5 -6 29 -14 55 -18 47 -7 84 4 100 28 5 7 50 11 122 12 110 1 155 12 141 34
-3 4 2 10 9 13 8 3 17 1 20 -6 3 -9 7 -9 13 -1 5 7 37 10 88 8 97 -4 132 2
138 24 3 12 5 10 6 -5 1 -19 7 -23 39 -24 20 0 46 -4 57 -8 11 -5 28 -4 38 1
12 6 23 6 31 -2 10 -7 22 -7 41 0 34 13 216 24 213 13 -4 -11 5 -13 52 -13 32
0 40 4 40 18 0 13 9 18 40 19 22 1 40 -3 40 -8 0 -5 9 -4 20 3 17 11 22 10 29
-1 5 -8 16 -11 26 -7 15 5 16 4 6 -8 -10 -12 -4 -14 41 -14 29 0 68 -3 86 -6
31 -7 46 7 20 17 -8 3 -6 6 5 6 9 1 17 -6 17 -14 0 -19 14 -19 30 0 9 11 17
12 30 5 10 -6 32 -10 49 -10 16 0 42 -5 56 -12 19 -8 31 -8 52 1 18 8 29 9 37
1 14 -14 36 -13 36 3 0 8 19 11 67 10 38 -1 101 1 141 4 61 5 72 8 72 24 0 11
3 19 8 20 74 5 142 2 143 -6 1 -5 2 -17 3 -25 1 -11 19 -16 79 -20 67 -4 77
-3 77 11 0 22 26 44 35 29 3 -6 11 -8 16 -5 5 4 9 1 9 -4 0 -6 -4 -11 -10 -11
-5 0 -10 -7 -10 -15 0 -8 5 -15 10 -15 6 0 10 4 10 8 0 14 99 10 111 -4 6 -7
20 -30 31 -51 20 -36 21 -59 25 -436 l5 -397 -43 0 c-92 0 -165 -68 -89 -85
16 -4 35 -3 42 1 15 10 70 6 81 -5 4 -4 10 -92 13 -194 l5 -186 -36 -7 c-21
-4 -39 -14 -42 -23 -11 -37 -36 -91 -40 -87 -3 2 -6 12 -7 23 -2 10 -7 17 -12
16 -9 -3 -10 -7 -13 -37 -1 -9 -17 -14 -53 -14 -29 0 -47 2 -40 5 20 8 14 23
-15 34 -32 12 -107 -7 -96 -24 4 -6 1 -7 -8 -1 -8 5 -131 10 -274 10 -143 1
-281 4 -307 8 -30 4 -48 2 -48 -4 0 -14 -27 -13 -32 2 -5 14 -158 23 -158 9 0
-12 -36 -19 -129 -26 -41 -3 -90 -9 -110 -13 -20 -5 -58 -7 -86 -6 -27 1 -67
-2 -88 -7 -21 -6 -107 -9 -190 -9 -192 2 -309 0 -319 -6 -10 -7 -370 -2 -441
5 -5 1 -5 5 -2 11 3 6 -1 7 -10 4 -24 -10 -205 -10 -208 -1 -1 4 -29 2 -62 -4
-33 -6 -97 -9 -142 -6 l-83 5 0 -328 0 -327 53 -6 c28 -2 81 -3 117 -1 36 2
162 9 280 15 263 15 292 16 305 19 14 2 431 10 582 10 67 0 124 4 127 9 3 5
86 10 183 11 98 1 198 4 223 5 25 2 144 7 265 10 121 4 238 8 260 10 22 2 85
8 140 13 55 5 101 7 102 3 2 -3 30 -4 63 -3 33 2 58 8 55 12 -3 5 24 7 60 5
44 -2 65 1 65 9 0 6 4 5 9 -3 5 -8 24 -14 43 -13 l33 1 3 -67 c2 -36 5 -69 7
-72 7 -11 17 -409 11 -428 -6 -18 -17 -22 -69 -25 l-62 -3 63 -2 c55 -2 62 -4
62 -22 0 -11 -4 -20 -10 -20 -5 0 -10 -9 -10 -20 0 -12 -12 -26 -30 -35 -37
-19 -39 -35 -2 -35 30 0 70 -19 42 -20 -12 -1 -12 -3 2 -11 31 -18 7 -38 -80
-66 -93 -30 -102 -36 -102 -70 0 -19 6 -23 30 -23 34 0 42 -25 11 -35 -56 -17
-494 -23 -1291 -16 -267 3 -515 1 -552 -3 -37 -5 -76 -5 -85 -1 -33 14 -57 15
-338 19 -154 1 -344 6 -422 11 l-143 8 0 -142 0 -141 38 1 c20 0 90 6 156 13
66 7 141 9 170 5 28 -4 84 -8 124 -8 41 -1 72 -5 72 -11 0 -14 -196 -13 -222
1 -30 16 -67 3 -74 -26 -5 -19 -13 -25 -38 -27 -73 -4 -94 -8 -159 -29 l-67
-23 0 -194 0 -195 72 8 c40 4 315 7 611 6 519 -2 710 3 1182 34 298 20 485 21
496 4 16 -26 9 -57 -17 -74 l-26 -17 26 -27 c17 -18 26 -38 26 -59 l0 -32
1905 0 1905 0 0 1199 0 1199 -46 -3 c-55 -4 -60 -8 -39 -28 8 -9 11 -18 6 -21
-5 -4 -11 0 -14 6 -3 10 -7 10 -20 -1 -14 -11 -18 -11 -23 3 -5 13 -14 15 -37
10 -40 -8 -55 -24 -50 -49 4 -16 3 -17 -6 -5 -6 8 -11 25 -11 38 0 39 -28 26
-33 -15 -2 -21 -4 -11 -3 22 1 42 5 59 14 57 6 -1 12 2 12 8 0 5 -11 10 -25
10 -22 0 -25 4 -25 38 l0 37 48 2 c26 1 58 5 72 7 14 3 60 10 103 17 l77 12 0
53 c0 52 -11 71 -24 39 -3 -8 -15 -15 -26 -15 -12 0 -19 4 -15 9 3 6 -38 11
-101 13 -99 3 -107 2 -115 -17 -5 -13 -8 -15 -9 -5 0 8 -7 23 -15 34 -12 16
-28 19 -124 18 -80 0 -113 3 -121 13 -8 9 -12 198 -13 629 -2 668 -4 644 51
631 12 -3 33 -8 47 -11 20 -5 27 -2 34 17 14 40 6 47 -61 52 -15 1 -18 11 -18
63 0 61 1 63 35 84 20 12 43 29 52 38 16 16 16 16 10 0 -5 -15 1 -17 41 -16
26 0 52 4 59 10 7 6 14 5 18 -2 12 -19 25 -10 25 18 0 15 4 22 8 16 8 -14 205
-16 239 -3 22 8 23 14 23 99 l0 90 -27 2 c-16 1 -37 1 -48 0 -11 0 -37 7 -58
15 -30 13 -40 14 -46 4 -6 -10 -12 -9 -25 4 -15 15 -16 15 -16 0 0 -9 -4 -14
-9 -11 -5 3 -7 15 -4 26 4 15 -6 31 -36 58 -43 38 -44 52 -7 52 17 0 18 2 6
10 -8 5 -23 7 -32 4 -10 -3 -18 -1 -18 5 0 6 7 11 15 11 20 0 19 16 -1 24 -8
3 -13 10 -9 15 3 6 12 8 20 4 8 -3 15 -1 15 5 0 5 -7 13 -16 16 -8 3 -12 10
-9 16 10 16 -31 12 -45 -5 -15 -18 -69 -20 -66 -2 4 27 39 67 60 68 21 0 21 1
1 10 -17 8 -17 9 5 4 14 -3 38 -8 54 -12 19 -4 31 -1 37 8 6 11 9 8 9 -8 0
-29 15 -29 44 0 13 13 28 21 34 19 7 -2 12 0 12 5 0 4 24 8 53 8 87 1 107 10
107 49 0 25 -6 36 -26 46 -14 8 -30 22 -35 32 -14 26 -34 22 -92 -16 -67 -44
-142 -56 -173 -28 -37 35 -62 42 -143 42 -64 0 -82 -3 -89 -16 -6 -12 -23 -17
-53 -16 -66 0 -71 1 -67 14 3 8 21 11 51 9 38 -2 47 1 47 13 0 12 -6 15 -25
10 -32 -8 -32 9 -1 30 15 10 27 12 31 6 11 -18 23 -10 30 20 7 30 35 43 35 16
0 -25 22 -30 39 -9 33 40 74 32 94 -18 3 -9 6 -7 6 7 1 11 -4 25 -11 32 -8 8
-8 12 -1 12 6 0 10 10 9 23 -1 16 5 23 21 25 17 3 21 0 17 -12 -5 -12 0 -16
21 -16 23 0 26 2 15 15 -10 13 -9 15 9 15 12 0 19 -4 16 -10 -3 -5 1 -20 9
-32 14 -20 16 -20 22 -3 7 17 8 17 21 -1 14 -18 15 -18 27 -1 15 19 46 23 46
6 0 -8 13 -9 39 -5 23 3 42 2 46 -4 8 -13 65 -13 65 0 0 6 -8 10 -17 10 -17 1
-17 1 0 14 16 12 17 52 17 590 l0 576 -3090 0 -3090 0 0 -1190z m5504 -73 c-3
-9 -10 -17 -15 -17 -11 0 -12 34 -2 44 11 11 24 -9 17 -27z m-352 0 c7 -7 22
-16 33 -21 16 -6 17 -9 5 -16 -21 -14 -30 -12 -30 5 0 18 -16 20 -26 3 -4 -6
-2 -14 4 -16 17 -5 15 -22 -3 -22 -8 0 -15 8 -15 18 0 9 -3 27 -6 40 -7 25 16
31 38 9z m238 -7 c0 -5 -5 -10 -11 -10 -5 0 -7 5 -4 10 3 6 8 10 11 10 2 0 4
-4 4 -10z m-1013 -16 c-3 -3 -12 -4 -19 -1 -8 3 -5 6 6 6 11 1 17 -2 13 -5z
m353 -9 c-7 -8 -21 -15 -31 -15 -11 0 -19 7 -19 15 0 10 10 15 31 15 27 0 30
-2 19 -15z m625 5 c-3 -5 -13 -10 -21 -10 -8 0 -14 5 -14 10 0 6 9 10 21 10
11 0 17 -4 14 -10z m-245 -20 c0 -5 -7 -10 -15 -10 -8 0 -15 5 -15 10 0 6 7
10 15 10 8 0 15 -4 15 -10z m198 -137 c-10 -2 -28 -2 -40 0 -13 2 -5 4 17 4
22 1 32 -1 23 -4z m165 -4 c13 10 16 8 22 -8 3 -12 11 -21 16 -21 19 0 8 -38
-12 -43 -22 -6 -49 1 -49 12 0 4 -15 5 -34 3 -18 -2 -37 1 -40 7 -5 7 1 11 14
11 12 0 18 4 15 11 -4 6 2 13 14 16 12 3 21 10 21 17 0 6 4 5 9 -3 8 -12 12
-12 24 -2z m153 2 c-8 -12 20 -22 40 -14 14 5 14 3 3 -15 -16 -26 -37 -31 -66
-18 -26 10 -31 36 -8 36 8 0 15 5 15 10 0 6 5 10 11 10 5 0 8 -4 5 -9z m107
-11 c3 -11 1 -18 -4 -14 -5 3 -9 12 -9 20 0 20 7 17 13 -6z m24 -2 c-3 -8 -6
-5 -6 6 -1 11 2 17 5 13 3 -3 4 -12 1 -19z m-631 -13 c-6 -18 5 -20 22 -3 6 6
14 9 18 6 11 -12 -35 -48 -52 -41 -11 4 -22 -1 -30 -12 -11 -15 -17 -16 -26
-7 -7 7 -8 12 -4 12 5 0 3 7 -5 16 -11 13 -9 14 14 9 28 -7 61 10 51 26 -3 5
0 9 6 9 7 0 10 -7 6 -15z m224 5 c0 -5 -4 -10 -10 -10 -5 0 -10 5 -10 10 0 6
5 10 10 10 6 0 10 -4 10 -10z m25 0 c3 -5 1 -10 -4 -10 -6 0 -11 5 -11 10 0 6
2 10 4 10 3 0 8 -4 11 -10z m-85 -20 c0 -13 -11 -13 -30 0 -12 8 -11 10 8 10
12 0 22 -4 22 -10z m-523 -6 c-3 -3 -12 -4 -19 -1 -8 3 -5 6 6 6 11 1 17 -2
13 -5z m251 -1 c-10 -2 -18 -8 -18 -13 0 -5 -10 -11 -22 -13 -21 -4 -20 -4 3
-6 15 0 32 -7 38 -15 18 -22 -46 -27 -89 -7 -31 14 -32 16 -12 19 12 2 22 10
22 18 0 10 6 13 18 10 9 -3 24 -1 32 4 8 5 22 9 30 9 11 -1 10 -3 -2 -6z m555
-30 c-7 -2 -19 -2 -25 0 -7 3 -2 5 12 5 14 0 19 -2 13 -5z m-693 -23 c0 -5 -2
-10 -4 -10 -3 0 -8 5 -11 10 -3 6 -1 10 4 10 6 0 11 -4 11 -10z m-567 -56 c17
-1 34 -10 39 -19 7 -12 17 -15 34 -11 20 5 23 3 21 -16 -2 -19 3 -23 24 -21
21 1 26 -3 25 -20 -1 -15 7 -23 24 -27 l25 -6 -24 -13 c-22 -12 -104 -25 -239
-36 -38 -4 -60 -1 -75 10 -14 10 -33 13 -54 9 -30 -6 -33 -4 -33 19 0 30 19
77 32 77 4 0 8 7 8 15 0 8 7 15 15 15 8 0 15 4 15 9 0 4 11 6 25 3 36 -7 97 7
89 20 -5 7 -2 8 6 3 7 -5 27 -9 43 -11z m-706 -38 c-3 -8 -1 -17 6 -20 7 -2 2
-5 -10 -5 -13 -1 -23 -6 -23 -11 0 -11 -125 -73 -147 -73 -7 0 -13 -4 -13 -9
0 -4 -9 -8 -19 -8 -11 0 -22 -4 -25 -9 -7 -11 -76 -12 -76 -2 0 10 -149 33
-162 25 -6 -4 -14 0 -19 7 -7 11 -9 11 -9 1 0 -8 -5 -10 -12 -5 -7 4 -20 8
-28 8 -17 0 -51 65 -42 80 4 6 8 2 10 -7 2 -10 7 -18 12 -18 5 0 7 7 4 15 -7
17 11 21 21 5 5 -8 11 -7 21 1 8 7 14 7 14 1 0 -12 54 -21 72 -12 33 18 78 19
93 3 15 -14 17 -14 29 3 13 17 15 17 30 1 22 -21 30 -22 22 -2 -5 13 2 15 36
13 23 -1 43 2 45 8 2 5 39 9 83 8 44 0 80 3 80 8 0 4 3 8 6 8 3 0 4 -6 1 -14z
m53 4 c0 -5 -5 -10 -11 -10 -5 0 -7 5 -4 10 3 6 8 10 11 10 2 0 4 -4 4 -10z
m-797 -83 c3 -20 5 -37 4 -38 -1 0 -39 -3 -84 -6 -58 -4 -83 -2 -83 6 0 18
-78 14 -88 -6 -9 -16 -11 -16 -27 0 -17 18 -40 23 -30 8 11 -19 -68 -25 -112
-9 -24 9 -43 12 -43 7 0 -5 -11 -9 -25 -9 -15 0 -25 6 -25 14 0 8 -8 17 -17
21 -15 5 -11 10 20 26 21 11 42 17 48 14 5 -4 16 -1 24 5 11 9 15 9 15 1 0 -9
5 -9 20 -1 12 6 57 11 100 12 44 0 80 4 80 8 0 5 8 9 18 8 42 0 144 10 150 16
12 12 49 -40 55 -77z m1569 61 c-6 -6 -15 -8 -19 -4 -4 4 -1 11 7 16 19 12 27
3 12 -12z m-1552 8 c0 -2 -7 -6 -15 -10 -8 -3 -15 -1 -15 4 0 6 7 10 15 10 8
0 15 -2 15 -4z m-640 -71 c0 -8 -7 -15 -15 -15 -8 0 -15 7 -15 15 0 8 7 15 15
15 8 0 15 -7 15 -15z m2256 -52 c-10 -10 -19 5 -10 18 6 11 8 11 12 0 2 -7 1
-15 -2 -18z m-1784 -295 c21 -3 35 -1 32 4 -3 4 9 8 25 8 17 0 31 -4 31 -10 0
-6 10 -5 26 2 20 9 27 9 34 -1 4 -8 13 -10 20 -6 9 5 11 4 6 -3 -5 -8 3 -12
22 -12 41 0 55 -20 46 -66 -6 -34 -8 -36 -20 -19 -13 17 -14 17 -14 1 0 -9 -5
-14 -10 -11 -6 4 -8 11 -5 16 4 5 1 9 -4 9 -6 0 -12 -19 -12 -42 -1 -28 -3
-34 -6 -18 -7 35 -18 39 -92 33 -85 -7 -132 -5 -183 5 -5 1 -8 13 -8 26 0 35
-18 42 -30 12 -7 -20 -17 -26 -40 -26 -19 0 -29 5 -27 13 1 8 -18 13 -63 15
-36 2 -69 7 -74 13 -6 6 -4 9 7 9 9 0 17 5 17 10 0 6 23 10 50 10 29 0 50 5
50 11 0 6 12 10 28 9 43 -3 54 -1 46 11 -6 10 41 9 148 -3z m-2120 -23 c-5
-26 -10 -29 -36 -19 -26 10 -18 32 12 37 15 2 28 5 28 6 1 0 -1 -10 -4 -24z
m55 14 c-14 -8 -22 -8 -30 0 -8 8 -3 11 19 11 25 -1 27 -2 11 -11z m3819 -1
c4 -5 -5 -22 -20 -37 -21 -20 -36 -26 -69 -25 -65 1 -140 23 -172 49 l-30 23
142 1 c89 0 145 -4 149 -11z m-2716 -13 c0 -9 -9 -15 -24 -15 -30 0 -43 17
-19 23 34 9 43 7 43 -8z m455 5 c6 -5 27 -5 48 0 21 4 46 6 57 3 24 -6 15 -33
-11 -33 -10 0 -19 -4 -19 -10 0 -5 -4 -10 -10 -10 -5 0 -9 5 -7 12 1 8 -19 11
-70 11 -67 -1 -70 0 -55 16 19 19 51 24 67 11z m258 3 c-13 -2 -33 -2 -45 0
-13 2 -3 4 22 4 25 0 35 -2 23 -4z m-1793 -7 c0 -2 -7 -9 -15 -16 -12 -10 -15
-10 -15 4 0 9 7 16 15 16 8 0 15 -2 15 -4z m1135 -6 c3 -5 -1 -10 -10 -10 -9
0 -13 5 -10 10 3 6 8 10 10 10 2 0 7 -4 10 -10z m-1315 -10 c-1 -15 -18 -25
-42 -25 -21 -1 -28 4 -28 17 0 15 7 18 35 16 19 -1 35 -5 35 -8z m2270 -98 c0
-5 -7 -9 -15 -9 -8 0 -12 4 -9 9 3 4 9 8 15 8 5 0 9 -4 9 -8z m-2321 -35 c11
-14 6 -27 -10 -27 -5 0 -13 9 -19 20 -8 16 -8 20 3 20 8 0 20 -6 26 -13z m-59
-7 c0 -5 -7 -10 -15 -10 -8 0 -15 5 -15 10 0 6 7 10 15 10 8 0 15 -4 15 -10z
m55 -60 c3 -5 -1 -10 -10 -10 -9 0 -13 5 -10 10 3 6 8 10 10 10 2 0 7 -4 10
-10z m3422 -234 c2 -2 6 -109 9 -237 4 -174 2 -230 -6 -216 -7 11 -24 17 -49
17 -46 0 -61 12 -97 77 l-28 51 24 20 c22 17 23 23 12 46 -8 19 -19 26 -39 26
-16 0 -39 9 -53 20 -32 25 -51 25 -83 0 -14 -11 -36 -20 -49 -20 -13 0 -29 -5
-36 -12 -19 -19 -14 -56 8 -63 25 -8 25 -27 3 -68 -32 -57 -54 -77 -88 -77
-43 0 -45 13 -45 257 l0 195 256 -5 c141 -4 259 -8 261 -11z m594 -7 c3 -5 6
-128 7 -272 0 -144 4 -362 8 -485 l7 -223 -138 3 -138 3 -3 60 c-1 33 -5 252
-9 487 -6 405 -6 427 11 436 23 13 246 5 255 -9z m841 -226 c2 -286 0 -374 -7
-381 -3 -3 -15 -1 -27 5 -18 8 -22 18 -22 60 -1 59 -16 80 -61 89 -35 6 -49
27 -60 86 -5 29 -2 35 25 50 48 27 33 83 -22 77 -13 -2 -33 2 -45 9 -30 16
-85 15 -109 -2 -10 -8 -28 -13 -40 -10 -24 6 -54 -19 -54 -46 0 -10 12 -23 30
-30 35 -14 37 -32 14 -90 -17 -43 -43 -64 -67 -55 -22 9 -37 -18 -39 -71 -2
-50 -13 -78 -28 -69 -8 5 -12 167 -14 515 l-1 95 100 5 c55 3 173 6 263 8
l162 3 2 -248z m-1725 -18 c-4 -8 -11 -15 -17 -15 -14 0 -13 27 3 33 16 6 21
1 14 -18z m71 -11 c-10 -10 -28 6 -28 24 0 15 1 15 17 -1 9 -9 14 -19 11 -23z
m1396 -12 c-1 -7 -2 -24 -2 -38 -3 -35 -25 -25 -27 12 -1 16 0 33 3 37 6 12
27 2 26 -11z m-110 -23 c-3 -5 -10 -7 -15 -3 -5 3 -7 10 -3 15 3 5 10 7 15 3
5 -3 7 -10 3 -15z m207 8 c-1 -12 -15 -9 -19 4 -3 6 1 10 8 8 6 -3 11 -8 11
-12z m-1481 -48 c0 -22 -5 -29 -20 -29 -15 0 -20 7 -20 29 0 28 16 44 33 34 4
-2 7 -17 7 -34z m-80 1 c0 -23 -4 -30 -20 -30 -16 0 -20 7 -20 30 0 23 4 30
20 30 16 0 20 -7 20 -30z m1480 -49 c15 -29 13 -31 -30 -31 -41 0 -52 14 -28
38 18 18 46 14 58 -7z m-1520 -29 c0 -13 -12 -22 -22 -16 -10 6 -1 24 13 24 5
0 9 -4 9 -8z m155 -2 c8 -13 -5 -13 -25 0 -13 8 -13 10 2 10 9 0 20 -4 23 -10z
m-165 -99 c0 -5 3 -16 6 -25 5 -12 0 -16 -18 -16 -13 0 -33 -7 -45 -15 -25
-17 -69 -13 -65 6 7 31 48 59 85 59 20 0 37 -4 37 -9z m246 -22 c27 -26 32
-44 8 -35 -12 5 -14 1 -8 -17 6 -20 4 -19 -15 5 -13 16 -36 30 -56 34 -30 5
-33 8 -24 26 13 25 62 18 95 -13z m1184 -18 c0 -5 -10 -15 -22 -23 -20 -13
-23 -27 -29 -108 -6 -81 -10 -97 -38 -136 -17 -25 -31 -49 -31 -54 0 -13 31
-19 104 -22 46 -2 60 -7 62 -19 1 -9 5 -26 9 -38 6 -20 4 -21 -94 -21 -96 0
-101 1 -106 23 -21 92 -25 122 -25 198 0 93 3 99 56 99 19 0 24 5 24 27 0 31
45 83 72 83 10 0 18 -4 18 -9z m210 -17 c17 -15 30 -34 29 -43 -3 -37 1 -41
50 -41 35 0 51 -4 55 -16 3 -9 6 -78 6 -154 l0 -138 -121 -7 c-71 -4 -124 -4
-130 2 -5 5 -6 23 -3 40 6 31 7 31 85 38 67 6 79 10 79 25 0 11 -5 22 -10 25
-26 16 -54 94 -60 170 -6 65 -11 82 -29 93 -11 8 -21 18 -21 23 0 18 39 8 70
-17z m-1350 -94 c0 -55 2 -60 24 -66 14 -3 29 -3 34 0 9 6 23 -173 19 -239 -3
-37 -21 -43 -157 -44 l-106 -1 4 34 4 33 94 7 c133 9 149 19 100 65 -18 17
-27 41 -35 90 -19 122 -21 162 -8 176 20 21 27 7 27 -55z m-394 -59 c-3 -20
-6 -56 -6 -81 -1 -34 -7 -53 -29 -77 l-27 -33 -3 89 c-2 82 0 89 19 94 13 3
20 13 20 31 0 19 4 24 16 19 12 -5 15 -14 10 -42z m145 -229 c4 -4 9 -19 13
-34 l6 -28 -110 0 c-60 0 -110 3 -111 8 0 4 -1 21 -2 37 l-2 30 100 -3 c55 -2
103 -7 106 -10z m1732 -53 c-15 -15 -100 -26 -263 -34 -63 -3 -131 -8 -150
-10 -36 -4 -60 8 -60 30 0 19 8 20 259 23 184 3 224 1 214 -9z m-823 -24 l0
-25 -124 0 c-126 0 -136 3 -136 41 0 5 58 9 130 9 l130 0 0 -25z m1470 15 c0
-5 -4 -10 -10 -10 -5 0 -10 5 -10 10 0 6 5 10 10 10 6 0 10 -4 10 -10z m-2055
-30 c0 -10 -10 -15 -29 -16 -306 -11 -495 -13 -499 -7 -18 28 14 33 253 36
135 1 252 2 260 2 8 0 15 -7 15 -15z m2219 -29 c7 -11 -9 -17 -61 -20 -34 -2
-43 1 -43 13 0 12 11 16 49 16 28 0 52 -4 55 -9z m-2254 -26 c7 -8 9 -15 4
-16 -5 0 -22 -2 -39 -4 -76 -10 -212 -11 -238 -2 -20 7 -31 6 -36 -1 -15 -24
-181 -17 -181 7 0 13 58 18 219 19 79 1 146 4 149 7 13 12 110 4 122 -10z
m-804 -31 c-3 -9 -6 -19 -6 -23 0 -4 -9 -7 -20 -8 -15 -1 -20 4 -20 23 0 19 5
24 26 24 20 0 25 -4 20 -16z m2778 -20 c20 -8 21 -24 2 -24 -7 0 -16 -9 -19
-21 -5 -18 -10 -20 -39 -13 -18 4 -45 7 -60 6 -23 -1 -28 3 -28 23 0 20 6 24
38 28 67 7 90 7 106 1z m-549 -16 c3 -3 -23 -8 -57 -11 -65 -6 -74 -4 -65 10
6 9 113 10 122 1z m392 -35 c-3 -10 -5 -4 -5 12 0 17 2 24 5 18 2 -7 2 -21 0
-30z m-2927 17 c0 -5 -7 -10 -16 -10 -8 0 -12 5 -9 10 3 6 10 10 16 10 5 0 9
-4 9 -10z m69 6 c-2 -2 -17 -6 -34 -10 -22 -5 -26 -4 -15 4 14 9 59 15 49 6z
m3260 -162 c-12 -15 -41 -19 -53 -7 -8 8 45 32 57 26 4 -3 3 -11 -4 -19z
m-132 -30 c-3 -3 -12 -4 -19 -1 -8 3 -5 6 6 6 11 1 17 -2 13 -5z m49 -15 c3
-6 0 -15 -7 -20 -8 -4 -16 -4 -20 3 -5 7 -12 7 -25 -1 -14 -8 -15 -11 -4 -11
12 0 11 -3 -3 -11 -23 -13 -28 -9 -21 18 4 14 16 23 33 26 14 2 29 5 33 6 4 0
10 -4 14 -10z m-198 -16 c2 -7 13 -13 23 -13 11 0 17 5 14 10 -9 15 4 12 21
-4 33 -34 18 -51 -83 -88 -53 -20 -103 -34 -110 -31 -15 6 -18 100 -4 122 6 9
19 12 40 8 16 -4 32 -3 35 1 8 13 59 8 64 -5z m-668 -5 c0 -4 18 -8 40 -8 22
0 40 5 40 10 0 6 14 10 30 10 26 0 31 -5 37 -30 3 -16 11 -30 18 -30 12 0 25
-21 25 -41 0 -15 -30 -10 -58 10 -28 19 -167 37 -156 20 3 -5 -2 -9 -10 -9 -9
0 -16 -6 -16 -14 0 -20 -14 -23 -115 -25 -49 -1 -105 -4 -122 -7 -33 -6 -33
-6 -33 34 0 44 13 60 35 42 11 -9 14 -7 17 10 2 18 11 22 51 25 27 2 51 5 54
8 8 9 163 4 163 -5z m-883 -98 c0 -16 -4 -30 -9 -30 -10 0 -11 44 -1 53 9 10
10 10 10 -23z m208 -20 c-4 -7 -14 -6 -27 1 -21 11 -21 12 -3 25 16 12 20 12
28 -1 4 -8 5 -20 2 -25z m-185 20 c0 -5 -5 -10 -11 -10 -5 0 -7 5 -4 10 3 6 8
10 11 10 2 0 4 -4 4 -10z m17 -22 c-3 -7 -5 -2 -5 12 0 14 2 19 5 13 2 -7 2
-19 0 -25z m948 22 c-3 -5 -33 -10 -66 -10 -33 0 -59 4 -59 10 0 6 29 10 66
10 41 0 63 -4 59 -10z m-2665 -40 c0 -5 -7 -10 -15 -10 -18 0 -20 -16 -2 -23
6 -3 -4 -5 -23 -6 -19 0 -43 4 -53 8 -28 10 -2 28 48 34 22 2 41 4 43 5 1 1 2
-2 2 -8z m90 -26 c11 -13 12 -18 3 -21 -18 -7 -16 -23 2 -23 8 0 14 6 13 13
-2 8 11 12 37 13 22 1 76 2 120 4 70 2 80 1 77 -14 -2 -9 2 -16 8 -16 5 0 10
-5 10 -11 0 -5 -4 -8 -9 -4 -5 3 -12 1 -16 -4 -3 -6 -13 -7 -21 -4 -10 4 -17
-2 -21 -16 -4 -16 -13 -21 -37 -21 -18 0 -37 5 -44 12 -8 8 -12 9 -12 1 0 -7
-17 -11 -45 -10 -25 1 -45 5 -45 10 0 13 -20 7 -63 -20 -36 -23 -53 -26 -124
-27 -46 0 -83 -3 -83 -7 0 -4 -82 -6 -182 -5 -141 1 -188 5 -205 16 -19 12
-24 12 -40 -2 -26 -22 -51 -26 -123 -17 -67 9 -193 -7 -158 -20 10 -3 -56 -5
-145 -4 -89 1 -222 2 -296 3 -98 1 -131 4 -122 13 7 7 81 10 233 9 214 -1 273
5 240 27 -19 12 25 22 58 14 l25 -7 -30 -6 c-16 -3 -28 -10 -25 -15 7 -14 51
-13 80 2 14 7 48 13 75 12 50 0 130 6 215 16 25 3 77 1 115 -4 41 -5 74 -5 80
0 13 13 149 11 162 -2 12 -12 72 13 63 28 -3 4 10 9 28 11 31 3 44 -11 20 -22
-23 -9 45 5 95 21 26 8 45 19 41 24 -3 5 2 9 10 9 9 0 16 7 16 15 0 10 -11 15
-35 15 -38 0 -38 0 -29 25 8 21 60 13 84 -11z m297 -16 c-3 -8 -6 -5 -6 6 -1
11 2 17 5 13 3 -3 4 -12 1 -19z m-753 -43 c-4 -8 -8 -15 -10 -15 -2 0 -4 7 -4
15 0 8 4 15 10 15 5 0 7 -7 4 -15z m279 8 c-7 -2 -19 -2 -25 0 -7 3 -2 5 12 5
14 0 19 -2 13 -5z m157 -83 c0 -5 -7 -10 -15 -10 -8 0 -15 5 -15 10 0 6 7 10
15 10 8 0 15 -4 15 -10z m53 3 c-7 -2 -19 -2 -25 0 -7 3 -2 5 12 5 14 0 19 -2
13 -5z m-2553 -23 c0 -5 -6 -10 -14 -10 -8 0 -18 5 -21 10 -3 6 3 10 14 10 12
0 21 -4 21 -10z m583 -10 c4 -15 0 -20 -13 -20 -13 0 -17 5 -13 20 3 11 9 20
13 20 4 0 10 -9 13 -20z m272 0 c31 -7 24 -7 -30 -3 -38 3 -72 7 -74 9 -8 7
64 3 104 -6z m-592 -7 c-7 -2 -19 -2 -25 0 -7 3 -2 5 12 5 14 0 19 -2 13 -5z
m2264 -1170 c6 -16 -54 -31 -117 -28 -44 1 -66 -4 -108 -27 -62 -32 -82 -36
-58 -9 15 17 16 19 1 25 -21 8 -36 -1 -29 -18 6 -16 -53 -46 -87 -45 -13 0
-122 -2 -243 -4 -212 -3 -309 6 -306 29 6 37 76 58 108 32 9 -8 31 -13 47 -12
17 1 68 5 115 8 47 2 108 9 136 14 29 5 83 5 123 0 57 -7 76 -5 94 7 25 16
185 36 259 31 28 -1 45 1 41 7 -3 5 0 8 7 5 8 -2 15 -9 17 -15z m-1039 -69
c-3 -3 -34 -7 -69 -9 -41 -2 -57 0 -44 5 22 10 122 13 113 4z"/>
<path d="M4408 4433 c7 -3 16 -2 19 1 4 3 -2 6 -13 5 -11 0 -14 -3 -6 -6z"/>
<path d="M4880 2185 c-11 -13 -7 -15 24 -15 37 0 48 13 20 24 -23 9 -30 8 -44
-9z"/>
<path d="M2743 2023 c10 -9 147 -11 147 -1 0 4 -34 8 -77 8 -42 0 -73 -3 -70
-7z"/>
<path d="M2298 1943 c7 -3 16 -2 19 1 4 3 -2 6 -13 5 -11 0 -14 -3 -6 -6z"/>
<path d="M2200 1929 c0 -5 5 -7 10 -4 6 3 10 8 10 11 0 2 -4 4 -10 4 -5 0 -10
-5 -10 -11z"/>
<path d="M6071 3998 c-16 -26 -1 -38 44 -37 17 1 22 3 13 6 -17 4 -26 24 -10
22 51 -8 48 14 -4 24 -23 4 -33 1 -43 -15z"/>
<path d="M5777 4003 c-4 -3 -7 -14 -7 -23 0 -17 11 -18 113 -11 23 1 22 21 -1
21 -10 0 -23 5 -30 12 -8 8 -15 8 -26 -1 -10 -8 -16 -9 -21 -1 -7 12 -19 13
-28 3z"/>
<path d="M2295 3860 c-19 -8 -19 -9 3 -9 12 -1 22 4 22 9 0 6 -1 10 -2 9 -2 0
-12 -4 -23 -9z"/>
<path d="M2991 3844 c0 -11 3 -14 6 -6 3 7 2 16 -1 19 -3 4 -6 -2 -5 -13z"/>
<path d="M1 3764 c0 -11 3 -14 6 -6 3 7 2 16 -1 19 -3 4 -6 -2 -5 -13z"/>
<path d="M100 3680 c0 -5 0 -13 0 -17 0 -16 23 -7 26 10 1 9 -4 17 -12 17 -8
0 -14 -4 -14 -10z"/>
<path d="M2 2893 l3 -268 52 -3 c43 -2 52 0 56 15 4 17 5 17 6 1 1 -14 10 -18
45 -18 56 0 83 9 64 21 -8 5 21 9 70 9 48 0 82 -4 82 -10 0 -5 11 -10 25 -10
14 0 25 5 25 12 0 6 3 9 6 5 3 -3 16 -2 29 3 13 5 26 6 30 2 8 -8 865 -9 865
-1 0 12 46 26 75 22 17 -3 63 1 104 7 44 7 76 8 80 3 10 -15 154 -10 167 5 5
8 17 13 25 11 20 -3 88 10 133 27 21 8 47 12 57 9 11 -4 19 -2 19 4 0 6 20 11
46 11 25 0 54 5 64 10 14 8 26 7 40 -2 18 -11 23 -10 34 5 7 9 20 17 29 17 27
0 28 17 1 29 -18 8 -31 8 -46 0 -15 -8 -22 -8 -28 1 -6 10 -15 10 -41 1 -21
-7 -35 -8 -37 -2 -2 5 -10 7 -18 4 -10 -4 -14 3 -14 27 0 22 -3 29 -12 23 -19
-11 -37 -12 -44 -2 -3 5 1 9 8 10 31 2 51 9 68 24 22 20 140 18 140 -2 0 -16
12 -17 28 0 12 11 173 25 362 31 41 2 83 6 93 10 10 5 30 6 45 3 15 -2 43 1
62 8 19 8 27 14 18 14 -10 1 -18 6 -18 12 0 5 -4 8 -9 4 -6 -3 -14 1 -18 9 -5
10 -16 13 -31 10 -12 -4 -20 -10 -17 -14 3 -5 -4 -6 -15 -3 -11 3 -20 12 -20
19 0 8 -6 14 -13 14 -7 0 -18 9 -25 20 -11 19 -22 20 -136 18 -75 -1 -130 2
-138 9 -25 20 -80 24 -104 8 -17 -11 -30 -12 -49 -5 -35 13 -131 13 -156 -1
-12 -6 -60 -12 -107 -14 -68 -2 -91 1 -105 13 -15 13 -27 14 -75 5 -37 -7 -80
-7 -124 -1 -45 6 -74 5 -87 -2 -20 -10 -33 -8 -86 15 -32 14 -142 14 -207 0
-29 -6 -49 -3 -86 13 -33 14 -60 19 -83 16 -19 -3 -61 -1 -93 5 -43 8 -63 8
-72 0 -10 -8 -27 -8 -63 1 -28 6 -68 9 -89 5 -80 -13 -227 -13 -267 0 -86 28
-153 37 -221 31 -178 -18 -183 -18 -215 -2 -18 9 -45 16 -61 16 l-28 0 2 -267z
m1751 -20 c-7 -2 -21 -2 -30 0 -10 3 -4 5 12 5 17 0 24 -2 18 -5z m131 -37
c-11 -30 -94 -49 -94 -21 0 19 29 34 67 35 23 0 31 -4 27 -14z m-1707 -192
c-3 -3 -12 -4 -19 -1 -8 3 -5 6 6 6 11 1 17 -2 13 -5z"/>
<path d="M34 1151 c3 -5 15 -7 26 -4 28 7 25 13 -6 13 -14 0 -23 -4 -20 -9z"/>
<path d="M1267 1143 c-4 -4 -184 -8 -400 -9 -536 -4 -590 -5 -580 -14 9 -9
115 -22 183 -23 25 0 128 3 230 6 144 6 197 4 240 -6 30 -8 84 -15 120 -15 36
0 87 -5 113 -11 26 -6 132 -11 235 -11 104 1 209 -4 237 -10 35 -8 62 -8 95 0
25 6 61 10 80 9 36 -2 78 6 88 16 3 3 -12 5 -34 5 -26 0 -34 3 -25 9 11 7 11
9 0 13 -8 3 73 5 179 4 105 -1 192 2 192 7 0 4 -13 7 -30 7 -16 0 -30 5 -30
11 0 5 -4 7 -10 4 -5 -3 -10 -2 -10 3 0 6 -54 8 -137 4 -160 -6 -200 -6 -504
3 -124 3 -228 2 -232 -2z m546 -40 c-7 -2 -19 -2 -25 0 -7 3 -2 5 12 5 14 0
19 -2 13 -5z"/>
<path d="M60 1136 c0 -2 7 -6 15 -10 8 -3 15 -1 15 4 0 6 -7 10 -15 10 -8 0
-15 -2 -15 -4z"/>
</g>
</svg>
