<svg xmlns="http://www.w3.org/2000/svg" xmlns:xlink="http://www.w3.org/1999/xlink" version="1.1" x="0px" y="0px" viewBox="0 0 100 125" enable-background="new 0 0 100 100" xml:space="preserve"><path fill="#0674D7" d="M63.049,30.807c-0.98-0.916-2.259-1.421-3.601-1.421H32c-1.441,0-2.614,1.173-2.614,2.614v36  c0,1.441,1.173,2.614,2.614,2.614h36c1.441,0,2.614-1.173,2.614-2.614V40.165c0-1.455-0.61-2.859-1.674-3.854L63.049,30.807z   M68.614,68c0,0.339-0.275,0.614-0.614,0.614H32c-0.339,0-0.614-0.275-0.614-0.614V32c0-0.339,0.275-0.614,0.614-0.614h27.448  c0.833,0,1.627,0.313,2.235,0.882l5.892,5.505c0.66,0.617,1.039,1.489,1.039,2.393V68z"/><rect x="42.095" y="41.742" fill="#0674D7" width="3.382" height="3.382"/><rect x="48.309" y="41.742" fill="#0674D7" width="3.382" height="3.382"/><rect x="54.524" y="41.742" fill="#0674D7" width="3.382" height="3.382"/><rect x="42.095" y="48.195" fill="#0674D7" width="3.382" height="3.382"/><rect x="48.309" y="48.195" fill="#0674D7" width="3.382" height="3.382"/><rect x="54.524" y="48.195" fill="#0674D7" width="3.382" height="3.382"/><rect x="42.095" y="54.649" fill="#0674D7" width="3.382" height="3.382"/><rect x="48.309" y="54.649" fill="#0674D7" width="3.382" height="3.382"/><rect x="54.524" y="54.649" fill="#0674D7" width="3.382" height="3.382"/><path fill="#0674D7" d="M86,34.577c0.553,0,1-0.447,1-1s-0.447-1-1-1h-8.438v-4.39c0-3.171-2.579-5.75-5.75-5.75h-4.39V14  c0-0.553-0.447-1-1-1s-1,0.447-1,1v8.438h-8.948V14c0-0.553-0.447-1-1-1s-1,0.447-1,1v8.438h-8.949V14c0-0.553-0.447-1-1-1  s-1,0.447-1,1v8.438h-8.948V14c0-0.553-0.447-1-1-1s-1,0.447-1,1v8.438h-4.391c-3.171,0-5.75,2.579-5.75,5.75v4.39H14  c-0.553,0-1,0.447-1,1s0.447,1,1,1h8.437v8.948H14c-0.553,0-1,0.447-1,1s0.447,1,1,1h8.437v8.949H14c-0.553,0-1,0.447-1,1  s0.447,1,1,1h8.437v8.948H14c-0.553,0-1,0.447-1,1s0.447,1,1,1h8.437v4.39c0,3.171,2.579,5.75,5.75,5.75h4.391V86  c0,0.553,0.447,1,1,1s1-0.447,1-1v-8.438h8.948V86c0,0.553,0.447,1,1,1s1-0.447,1-1v-8.438h8.949V86c0,0.553,0.447,1,1,1  s1-0.447,1-1v-8.438h8.948V86c0,0.553,0.447,1,1,1s1-0.447,1-1v-8.438h4.39c3.171,0,5.75-2.579,5.75-5.75v-4.39H86  c0.553,0,1-0.447,1-1s-0.447-1-1-1h-8.438v-8.948H86c0.553,0,1-0.447,1-1s-0.447-1-1-1h-8.438v-8.949H86c0.553,0,1-0.447,1-1  s-0.447-1-1-1h-8.438v-8.948H86z M75.563,71.813c0,2.067-1.683,3.75-3.75,3.75H28.187c-2.067,0-3.75-1.683-3.75-3.75V28.188  c0-2.067,1.683-3.75,3.75-3.75h43.626c2.067,0,3.75,1.683,3.75,3.75V71.813z"/></svg>
