<svg xmlns="http://www.w3.org/2000/svg" xmlns:xlink="http://www.w3.org/1999/xlink" version="1.1" x="0px" y="0px" viewBox="0 0 100 125" enable-background="new 0 0 100 100" xml:space="preserve"><path fill="#0674D7" d="M44.377,45.199c-1.29-3.414-3.87-6.19-7.149-7.738c-0.047-0.031-0.097-0.049-0.148-0.071  c-1.772-0.811-3.735-1.275-5.807-1.275c-4.292,0-8.135,1.943-10.709,4.992c-0.025,0.023-0.044,0.048-0.067,0.073  c-2.023,2.43-3.243,5.552-3.243,8.954c0,0.405,0.027,0.804,0.061,1.201c-0.001,0.021,0.003,0.041,0.003,0.062  c0.567,6.308,5.327,11.416,11.467,12.522c0.106,0.037,0.217,0.056,0.328,0.056c0.005,0,0.009-0.003,0.014-0.003  c0.701,0.109,1.414,0.182,2.146,0.182c2.977,0,5.735-0.94,8.008-2.529c0.064-0.033,0.114-0.081,0.168-0.126  c3.53-2.548,5.841-6.687,5.841-11.363c0-1.669-0.308-3.263-0.846-4.749C44.431,45.318,44.403,45.26,44.377,45.199z M41.846,44.425  c-3.129-0.147-6.266,0.581-9.011,2.117c-0.265-0.116-0.546-0.201-0.838-0.256c0.914-2.677,2.588-5.049,4.804-6.814  C38.935,40.584,40.7,42.311,41.846,44.425z M29.353,50.133c0-1.059,0.861-1.92,1.92-1.92s1.919,0.861,1.919,1.92  s-0.86,1.92-1.919,1.92S29.353,51.191,29.353,50.133z M31.272,38.114c1.196,0,2.349,0.181,3.44,0.508  c-2.318,2.11-4.021,4.843-4.876,7.872c-0.918,0.364-1.658,1.064-2.085,1.948c-2.35-1.573-4.209-3.803-5.341-6.399  C24.609,39.636,27.763,38.114,31.272,38.114z M21.051,43.843c1.441,2.784,3.642,5.135,6.347,6.744  c0.034,0.291,0.096,0.571,0.191,0.84c-2.776,0.549-5.669,0.289-8.308-0.749c-0.008-0.182-0.028-0.36-0.028-0.544  C19.254,47.825,19.919,45.675,21.051,43.843z M19.594,52.922c1.657,0.527,3.386,0.795,5.118,0.795c1.391,0,2.783-0.178,4.142-0.523  c0.668,0.529,1.502,0.859,2.419,0.859c0.101,0,0.197-0.022,0.296-0.03c-0.188,2.829-1.191,5.56-2.88,7.841  C24.203,60.877,20.659,57.378,19.594,52.922z M30.933,62.134c1.691-2.638,2.627-5.719,2.668-8.867  c0.233-0.174,0.442-0.374,0.631-0.594c1.866,2.131,3.086,4.77,3.508,7.573c-1.87,1.2-4.086,1.905-6.468,1.905  C31.158,62.151,31.047,62.137,30.933,62.134z M39.517,58.854c-0.671-3.06-2.187-5.899-4.383-8.153  c0.027-0.187,0.057-0.373,0.057-0.568c0-0.819-0.254-1.579-0.686-2.209c2.542-1.248,5.407-1.742,8.222-1.42  c0.364,1.146,0.563,2.364,0.563,3.629C43.29,53.567,41.835,56.661,39.517,58.854z"/><path fill="#0674D7" d="M83.838,45.199c-1.29-3.414-3.87-6.19-7.149-7.738c-0.047-0.031-0.096-0.049-0.147-0.071  c-1.772-0.811-3.735-1.276-5.808-1.276c-4.292,0-8.135,1.943-10.709,4.992c-0.025,0.023-0.044,0.048-0.067,0.073  c-2.023,2.43-3.243,5.552-3.243,8.954c0,0.405,0.027,0.804,0.061,1.201c-0.001,0.021,0.003,0.041,0.003,0.062  c0.567,6.308,5.327,11.416,11.467,12.522c0.106,0.037,0.217,0.056,0.328,0.056c0.005,0,0.009-0.003,0.014-0.003  c0.701,0.109,1.414,0.182,2.146,0.182c2.977,0,5.735-0.94,8.008-2.529c0.064-0.033,0.114-0.081,0.168-0.126  c3.53-2.548,5.841-6.687,5.841-11.363c0-1.669-0.308-3.263-0.846-4.749C83.892,45.318,83.863,45.26,83.838,45.199z M81.306,44.425  c-3.13-0.147-6.265,0.581-9.011,2.117c-0.265-0.116-0.546-0.201-0.838-0.256c0.914-2.677,2.588-5.049,4.804-6.814  C78.396,40.584,80.161,42.311,81.306,44.425z M68.813,50.133c0-1.059,0.861-1.92,1.92-1.92s1.919,0.861,1.919,1.92  s-0.86,1.92-1.919,1.92S68.813,51.191,68.813,50.133z M70.733,38.114c1.196,0,2.349,0.181,3.44,0.508  c-2.318,2.11-4.021,4.843-4.876,7.872c-0.918,0.364-1.658,1.064-2.085,1.948c-2.35-1.573-4.209-3.803-5.341-6.399  C64.07,39.636,67.223,38.114,70.733,38.114z M60.512,43.843c1.441,2.784,3.642,5.135,6.347,6.744  c0.034,0.291,0.096,0.571,0.191,0.84c-2.778,0.55-5.671,0.288-8.308-0.749c-0.008-0.182-0.028-0.36-0.028-0.544  C58.715,47.825,59.38,45.675,60.512,43.843z M59.055,52.922c1.657,0.527,3.385,0.795,5.118,0.795c1.391,0,2.783-0.178,4.142-0.523  c0.668,0.529,1.502,0.859,2.419,0.859c0.101,0,0.197-0.022,0.296-0.03c-0.188,2.829-1.191,5.56-2.88,7.841  C63.664,60.877,60.12,57.378,59.055,52.922z M70.394,62.134c1.691-2.638,2.627-5.719,2.668-8.867  c0.233-0.174,0.442-0.374,0.631-0.594c1.866,2.131,3.086,4.77,3.508,7.573c-1.87,1.2-4.086,1.905-6.468,1.905  C70.619,62.151,70.508,62.137,70.394,62.134z M78.978,58.854c-0.671-3.06-2.187-5.899-4.383-8.153  c0.027-0.187,0.057-0.373,0.057-0.568c0-0.819-0.254-1.579-0.686-2.209c2.542-1.248,5.408-1.742,8.222-1.42  c0.364,1.146,0.563,2.364,0.563,3.629C82.751,53.567,81.295,56.661,78.978,58.854z"/><path fill="#0674D7" d="M91.517,35.573l-3.891-3.302c-1.025-0.87-2.313-1.35-3.624-1.35H63.229c-1.432,0-2.805,0.528-3.867,1.488  l-1.623,1.467H43.987l-1.623-1.467c-1.063-0.96-2.436-1.488-3.867-1.488H12.42v-6.798c0-0.553-0.447-1-1-1s-1,0.447-1,1v7.798v1.955  H7.293c-0.553,0-1,0.447-1,1v7.376c0,0.553,0.447,1,1,1h3.127v13.76H7.293c-0.553,0-1,0.447-1,1v7.375c0,0.553,0.447,1,1,1h3.127  v1.955v7.533c0,0.553,0.447,1,1,1s1-0.447,1-1v-6.533h26.077c1.432,0,2.804-0.527,3.862-1.484l1.628-1.471h13.751l1.624,1.468  c0.001,0,0.001,0,0.001,0c1.062,0.959,2.435,1.487,3.866,1.487h20.772c1.312,0,2.598-0.479,3.624-1.349l3.891-3.303  c1.392-1.18,2.19-2.944,2.19-4.84V40.414C93.707,38.519,92.909,36.754,91.517,35.573z M55.526,35.877l-2.478,2.239  c-0.3,0.271-0.687,0.419-1.089,0.419h-2.193c-0.402,0-0.789-0.148-1.088-0.419l-2.478-2.239H55.526z M8.293,41.253v-5.376h2.127  v5.376H8.293z M8.293,64.388v-5.375h2.127v5.375H8.293z M46.2,64.388l2.48-2.241c0.297-0.269,0.683-0.416,1.086-0.416h2.193  c0.402,0,0.789,0.148,1.088,0.419l2.477,2.238H46.2z M90.223,63.166l-3.891,3.303c-0.665,0.563-1.492,0.874-2.33,0.874H63.229  c-0.936,0-1.832-0.345-2.526-0.972l-1.821-1.645c-0.033-0.037-0.07-0.066-0.108-0.097l-4.386-3.963  c-0.667-0.603-1.53-0.935-2.429-0.935h-2.193c-0.9,0-1.763,0.331-2.428,0.933l-6.32,5.711c-0.69,0.625-1.586,0.969-2.521,0.969  H12.42v-1.955v-7.375v-15.76v-7.376v-1.955h26.077c0.936,0,1.832,0.346,2.525,0.973l6.315,5.706c0.667,0.603,1.53,0.935,2.429,0.935  h2.193c0.898,0,1.762-0.332,2.43-0.935l4.393-3.97c0.034-0.029,0.067-0.054,0.096-0.087l1.825-1.649  c0.693-0.627,1.59-0.973,2.525-0.973h20.772c0.838,0,1.665,0.311,2.33,0.875l3.891,3.302c0.93,0.788,1.484,2.027,1.484,3.315v0.429  h-2.5c-0.553,0-1,0.447-1,1s0.447,1,1,1h2.5v6.29h-2.5c-0.553,0-1,0.447-1,1s0.447,1,1,1h2.5v6.29h-2.5c-0.553,0-1,0.447-1,1  s0.447,1,1,1h2.5v0.429C91.707,61.14,91.152,62.379,90.223,63.166z"/></svg>
