<svg xmlns="http://www.w3.org/2000/svg" xmlns:xlink="http://www.w3.org/1999/xlink" version="1.1" x="0px" y="0px" viewBox="0 0 100 125" enable-background="new 0 0 100 100" xml:space="preserve"><path fill="#0674D7" d="M82.221,26.903c-0.295-0.468-0.912-0.605-1.379-0.314l-15.801,9.939l3.619-4.708c0,0,0,0,0,0s0,0,0,0  l4.407-5.733c0.161-0.21,0.233-0.477,0.198-0.739c-0.034-0.263-0.172-0.501-0.382-0.663l-18.12-13.929  c-0.21-0.161-0.475-0.233-0.739-0.198c-0.263,0.034-0.501,0.172-0.663,0.382L5.664,72.989c-0.337,0.438-0.254,1.065,0.184,1.402  l18.12,13.929c0.182,0.14,0.396,0.207,0.608,0.207c0.3,0,0.597-0.135,0.794-0.391l0.299-0.389l0.778,1.237  c0.142,0.225,0.366,0.384,0.625,0.442c0.073,0.018,0.147,0.025,0.222,0.025c0.187,0,0.372-0.053,0.532-0.153l12.768-8.032  c0.001-0.001,0.002-0.001,0.003-0.002c0.001,0,0.001-0.001,0.002-0.002l6.184-3.89c0.468-0.294,0.608-0.912,0.314-1.379  l-1.601-2.544l2.696-1.696l1.601,2.544c0.295,0.469,0.913,0.608,1.379,0.314l5.982-3.763c0.001-0.001,0.003-0.001,0.004-0.002  c0.001-0.001,0.001-0.002,0.002-0.002l6.153-3.87c0.001-0.001,0.003-0.001,0.004-0.002c0.001-0.001,0.001-0.002,0.002-0.002  l6.154-3.871c0,0,0.001,0,0.001-0.001c0,0,0-0.001,0.001-0.001l6.157-3.873c0.001,0,0.001,0,0.002-0.001  c0,0,0.001-0.001,0.001-0.001l6.156-3.872c0.001,0,0.001,0,0.002-0.001c0,0,0.001-0.001,0.001-0.001l12.279-7.724  c0.225-0.142,0.384-0.366,0.442-0.625c0.06-0.258,0.013-0.529-0.128-0.754L82.221,26.903z M24.394,86.125L7.859,73.415L54.338,12.95  l16.534,12.71l-3.188,4.147l-2.383-1.832c-0.438-0.337-1.065-0.255-1.402,0.184c-0.337,0.438-0.254,1.065,0.184,1.402l2.383,1.832  l-3.215,4.182l-2.383-1.832c-0.438-0.337-1.065-0.254-1.402,0.184s-0.254,1.065,0.184,1.402l2.382,1.831L60.156,39.6L43.363,50.163  l0.522-0.68c0.337-0.438,0.254-1.065-0.184-1.402l-7.435-5.715c-0.438-0.337-1.065-0.255-1.402,0.184l-4.435,5.769  c-0.161,0.21-0.233,0.476-0.198,0.739c0.034,0.263,0.172,0.501,0.382,0.663l6.054,4.654L14.593,68.26  c-0.225,0.142-0.384,0.366-0.442,0.625c-0.06,0.258-0.013,0.529,0.128,0.754l10.256,16.304L24.394,86.125z M38.479,53.235  l-0.007,0.004l-5.846-4.495l3.216-4.183l5.849,4.496L38.479,53.235z M87.735,49.253l-1.6-2.544  c-0.294-0.468-0.911-0.606-1.379-0.314c-0.468,0.294-0.608,0.912-0.314,1.379l1.6,2.544l-4.465,2.809l-1.6-2.543  c-0.294-0.468-0.911-0.606-1.379-0.314c-0.468,0.294-0.608,0.912-0.314,1.379l1.6,2.544l-4.466,2.809l-1.6-2.544  c-0.295-0.468-0.911-0.606-1.379-0.314c-0.468,0.294-0.608,0.912-0.314,1.379l1.6,2.544l-4.466,2.809l-1.6-2.544  c-0.294-0.468-0.912-0.607-1.379-0.314c-0.468,0.294-0.608,0.912-0.314,1.379l1.6,2.544L63.1,64.748l-1.6-2.544  c-0.295-0.468-0.912-0.606-1.379-0.314c-0.468,0.294-0.608,0.911-0.314,1.379l1.6,2.545l-4.466,2.809l-1.6-2.544  c-0.294-0.468-0.911-0.606-1.379-0.314c-0.468,0.294-0.608,0.911-0.314,1.379l1.6,2.545l-4.293,2.7l-1.601-2.544  c-0.295-0.468-0.911-0.606-1.379-0.314l-4.39,2.761c-0.225,0.142-0.384,0.366-0.442,0.625c-0.06,0.258-0.013,0.529,0.128,0.754  l1.601,2.544l-4.493,2.826l-1.6-2.544c-0.294-0.468-0.911-0.606-1.379-0.314c-0.468,0.294-0.608,0.911-0.314,1.379l1.6,2.545  l-4.791,3.014l-1.6-2.544c-0.294-0.468-0.912-0.606-1.379-0.314c-0.468,0.294-0.608,0.912-0.314,1.379l1.601,2.545l-4.594,2.89  L16.504,69.421l44.421-27.942c0.222-0.049,0.432-0.16,0.582-0.354l0.017-0.022L81.06,28.814l11.104,17.652L87.735,49.253z"/><path fill="#0674D7" d="M64.441,53.216c-0.295-0.468-0.911-0.606-1.379-0.314c-0.468,0.295-0.608,0.912-0.314,1.379l0.597,0.948  c0.19,0.303,0.516,0.468,0.848,0.468c0.182,0,0.366-0.05,0.531-0.153c0.468-0.295,0.608-0.912,0.314-1.379L64.441,53.216z"/><path fill="#0674D7" d="M60.072,46.27c-0.295-0.468-0.912-0.607-1.379-0.314c-0.468,0.295-0.608,0.912-0.314,1.379l0.597,0.948  c0.19,0.303,0.516,0.468,0.848,0.468c0.182,0,0.366-0.05,0.531-0.153c0.468-0.295,0.608-0.912,0.314-1.379L60.072,46.27z"/><path fill="#0674D7" d="M77.17,34.333c-0.468,0.294-0.608,0.912-0.314,1.379l4.966,7.895c0.19,0.303,0.516,0.468,0.848,0.468  c0.182,0,0.366-0.05,0.531-0.153c0.468-0.294,0.608-0.912,0.314-1.379l-4.966-7.895C78.255,34.18,77.638,34.041,77.17,34.333z"/><path fill="#0674D7" d="M46.472,63.341c-0.293-0.467-0.909-0.607-1.379-0.314c-0.468,0.294-0.608,0.911-0.314,1.379l0.596,0.948  c0.189,0.302,0.515,0.468,0.848,0.468c0.182,0,0.365-0.05,0.531-0.153c0.468-0.294,0.608-0.911,0.314-1.379L46.472,63.341z"/><path fill="#0674D7" d="M42.892,57.651c-0.293-0.467-0.909-0.606-1.379-0.313c-0.467,0.294-0.607,0.911-0.313,1.379l0.597,0.947  c0.189,0.302,0.515,0.467,0.847,0.467c0.182,0,0.366-0.05,0.532-0.154c0.467-0.294,0.607-0.911,0.313-1.379L42.892,57.651z"/><path fill="#0674D7" d="M37.837,61.494c-0.294-0.468-0.911-0.606-1.379-0.314l-12.57,7.906c-0.225,0.142-0.384,0.366-0.442,0.625  c-0.06,0.258-0.013,0.529,0.128,0.754l3.877,6.163c0.19,0.303,0.516,0.468,0.848,0.468c0.182,0,0.366-0.05,0.531-0.153l12.57-7.907  c0.225-0.142,0.384-0.366,0.442-0.625c0.06-0.258,0.013-0.529-0.128-0.754L37.837,61.494z M28.611,74.717l-2.813-4.47l10.878-6.842  l2.812,4.47L28.611,74.717z"/><path fill="#0674D7" d="M53.913,50.144c-0.142-0.225-0.366-0.384-0.625-0.442c-0.258-0.062-0.53-0.013-0.754,0.128l-6.158,3.874  c-0.468,0.294-0.608,0.911-0.314,1.379l4.992,7.938c0.142,0.225,0.366,0.384,0.625,0.442c0.073,0.018,0.147,0.025,0.222,0.025  c0.187,0,0.372-0.053,0.532-0.153l6.159-3.874c0.225-0.142,0.384-0.366,0.442-0.625c0.06-0.258,0.013-0.529-0.128-0.754  L53.913,50.144z M52.215,61.108l-3.928-6.244l4.465-2.81l3.929,6.244L52.215,61.108z"/><path fill="#0674D7" d="M72.39,38.521c-0.142-0.225-0.366-0.384-0.625-0.442c-0.258-0.062-0.53-0.013-0.754,0.128l-6.158,3.874  c-0.468,0.294-0.608,0.911-0.314,1.379l4.992,7.938c0.142,0.225,0.366,0.384,0.625,0.442c0.073,0.018,0.147,0.025,0.222,0.025  c0.187,0,0.372-0.053,0.532-0.153l6.159-3.874c0.225-0.142,0.384-0.366,0.442-0.625c0.06-0.258,0.013-0.529-0.128-0.754  L72.39,38.521z M70.691,49.486l-3.928-6.244l4.465-2.81l3.929,6.244L70.691,49.486z"/><path fill="#0674D7" d="M47.208,41.599c-0.438-0.338-1.064-0.254-1.402,0.184c-0.336,0.438-0.255,1.065,0.184,1.402l0.888,0.683  c0.182,0.14,0.396,0.207,0.608,0.207c0.3,0,0.597-0.135,0.794-0.391c0.336-0.438,0.255-1.065-0.184-1.402L47.208,41.599z"/><path fill="#0674D7" d="M40.371,38.866c0.182,0.14,0.396,0.207,0.608,0.207c0.3,0,0.597-0.135,0.794-0.391  c0.336-0.438,0.255-1.065-0.184-1.402l-0.888-0.683c-0.438-0.336-1.065-0.254-1.402,0.184c-0.336,0.438-0.255,1.065,0.184,1.402  L40.371,38.866z"/><path fill="#0674D7" d="M60.18,26.562c0.182,0.14,0.396,0.207,0.608,0.207c0.3,0,0.597-0.135,0.794-0.391  c0.337-0.438,0.254-1.065-0.184-1.402l-7.395-5.684c-0.438-0.337-1.065-0.254-1.402,0.184s-0.254,1.065,0.184,1.402L60.18,26.562z"/><path fill="#0674D7" d="M28.202,55.498c0.182,0.14,0.396,0.207,0.608,0.207c0.3,0,0.597-0.135,0.794-0.391  c0.336-0.438,0.255-1.065-0.184-1.402l-0.888-0.683c-0.438-0.337-1.066-0.254-1.402,0.184s-0.255,1.065,0.184,1.402L28.202,55.498z"/><path fill="#0674D7" d="M51.352,38.13c0.182,0.14,0.396,0.207,0.608,0.207c0.3,0,0.597-0.135,0.794-0.391l4.435-5.769  c0.161-0.21,0.233-0.476,0.198-0.739c-0.034-0.263-0.172-0.501-0.382-0.663l-7.435-5.715c-0.438-0.337-1.065-0.255-1.402,0.184  l-4.435,5.769c-0.161,0.21-0.233,0.476-0.198,0.739c0.034,0.263,0.172,0.501,0.382,0.663L51.352,38.13z M49.145,27.256l5.849,4.496  l-3.216,4.183l-5.849-4.496L49.145,27.256z"/></svg>
