<?xml version="1.0" encoding="UTF-8"?>
<svg version="1.1" viewBox="0 0 128 128" xmlns="http://www.w3.org/2000/svg"><path d="m1.3e2 44c-.034 19 .068 40-.052 59-.44 6.4-6.9 11-13 10-34-.035-68 .07-1e2-.053-6.4-.44-11-6.9-10-13v-56c14 12 15 13 23 19 9.4 6.2 18 13 28 19 8.8 4.3 19 3.4 24 0 9.8-5.8 18-14 27-19 9.2-7.1 13-9.7 24-19zm0-19c.33 8.2-6.2 14-12 19-11 8.5-30 23-39 29-3.9 3.6-18 3.2-22 0-14-9.8-23-16-37-27-7.7-6.3-16-13-14-21 .46-6.1 6.1-11 12-10 34 .036 68-.07 1e2.053 6.3-.74 8.6 4.5 10 10z" fill="#333"/></svg>
