<?xml version="1.0" encoding="UTF-8"?>
<svg version="1.1" viewBox="0 0 128 128" xmlns="http://www.w3.org/2000/svg"><path d="m37 1.1e2c.71 12-14 21-24 15-10-5-12-21-2.6-27 7.6-6.1 20-3.9 25 5.2 1.3 2.3 1.9 5 1.9 7.7zm44 10c-.08 7.7-9.8 5.6-15 6.2-8.8-.012-8.1-9.9-9.5-16-6.1-21-26-37-48-38-6.4-2.6-2.9-11-4.1-16 1-8 10-6.2 16-4.7 29 5.9 54 31 60 60 .58 2.9.98 5.9 1.2 8.8zm44 .17c-.23 7.5-9.6 5.4-15 5.9-8.6.038-7.7-6.1-9.5-15-5.3-34-30-65-63-76-9.4-3.5-19-5-29-6-4.2-1.2-3.3-10-3.5-15-.26-7.2 6.8-7.4 13-6.6 36 3.8 70 25 89 57 11 17 17 37 18 57z" fill="#333"/></svg>
