<?xml version="1.0" encoding="UTF-8"?>
<svg version="1.1" viewBox="0 0 128 128" xmlns="http://www.w3.org/2000/svg"><path d="m64 5.5c24-.47 48 16 56 39 8 21 3.3 46-12 62-7 7.6-16 14-26 16-5.8-1.6-2.1-9.9-3.1-14 .07-5.5.55-12-4.1-16 10-.73 22-5.7 25-17 3.2-9.6 3.2-21-4.2-29 1.7-4.8 2.8-12-3.3-16-5 .96-9.6 3.5-14 6.3-9.8-2.7-20-2.7-30 0-4.9-3-10-6.7-16-6.2-4 4.1-2.4 12-1.1 16-6.7 8.7-6.6 23-2.3 32 4.3 8.9 15 13 24 13-3.7 3.9-3.3 11-11 9.6-6 .8-9.6-4.5-12-8.8-1.5-2.8-11-6.4-9.5-1.6 3.6 2.6 6.8 5.8 8.2 10 2.4 7.2 11 8.2 18 7.6 5.6-2 1.4 7.6 2.8 11-2.9 7.1-12-1.2-17-3-19-12-30-34-28-56 1.6-25 21-48 46-53 4.5-1 9.2-1.5 14-1.5zm-37 86c-.99-3.2-2.9 1.3 0 0zm2.4 2.7c.15-4.5-3.7.73 0 0zm2.3 3.5c1.4-4.2-4.7-1 0 0zm3.3 3.3c.48-4.8-5.3.22 0 0zm4.5 2c-1.8-4.5-4.7 2.5 0 0zm4.9.39c-2.5-3.7-4.2 3.5 0 0zm4.5-.78c-3.4-3.3-3.1 4.3 0 0z" fill="#333"/></svg>
