<?xml version="1.0" encoding="UTF-8"?>
<svg version="1.1" viewBox="0 0 128 128" xmlns="http://www.w3.org/2000/svg"><path d="m95 83c3-3.2 6.6-6 9.1-9.6 1.7-4.5-3.2-7-5.7-10-11-10-21-21-32-32-3.9-2.7-7.1 1.5-9.6 4-11 11-22 22-33 33-2.7 3.9 1.5 7.1 4 9.6 2.9 2.5 5.5 7.4 10 5.7 4.5-3.5 8.2-8 12-12 4.4-4.4 8.8-8.8 13-13 8.3 8.2 16 17 25 25 1.9 1.3 4.7 1 6.3-.65zm29-19c.47 24-16 48-39 56-21 8.2-47 3-63-13-16-15-22-39-16-60 6.6-24 30-43 55-43 23-1.6 47 12 57 33 4.1 8.2 6.2 17 6.2 27z" fill="#333"/></svg>
