<?xml version="1.0" encoding="UTF-8"?>
<svg width="1.3e2" height="1.3e2" version="1.1" viewBox="0 0 128 128" xmlns="http://www.w3.org/2000/svg"><path d="m1.2e2 27c-2.6 6.1-11 9.1-12 15 .41 25-13 49-35 62-22 13-52 12-73-2 13 1.5 26-2 36-10-10 .01-20-7.2-23-17 2.7.52 9.4.66 10-.7-11-2.5-19-13-19-24 2.2 1.9 12 4 10 2.7-10-6.9-13-22-7-32 12 15 31 25 51 26-2.6-11 2.7-22 12-27 9.5-5.1 22-3.2 30 5 5-.049 13-5.5 15-4.9-1.9 5.2-5.7 9.7-10 12 4.9-.52 9.7-1.9 14-3.8z" fill="#333" stroke-width=".076"/></svg>
